%TF.GenerationSoftware,KiCad,Pcbnew,6.0.11+dfsg-1*%
%TF.CreationDate,2024-10-10T07:54:30+00:00*%
%TF.ProjectId,stoper,73746f70-6572-42e6-9b69-6361645f7063,rev?*%
%TF.SameCoordinates,Original*%
%TF.FileFunction,Copper,L2,Bot*%
%TF.FilePolarity,Positive*%
%FSLAX46Y46*%
G04 Gerber Fmt 4.6, Leading zero omitted, Abs format (unit mm)*
G04 Created by KiCad (PCBNEW 6.0.11+dfsg-1) date 2024-10-10 07:54:30*
%MOMM*%
%LPD*%
G01*
G04 APERTURE LIST*
%TA.AperFunction,ComponentPad*%
%ADD10R,1.600000X1.600000*%
%TD*%
%TA.AperFunction,ComponentPad*%
%ADD11O,1.600000X1.600000*%
%TD*%
%TA.AperFunction,ComponentPad*%
%ADD12C,1.600000*%
%TD*%
%TA.AperFunction,ComponentPad*%
%ADD13R,1.524000X2.524000*%
%TD*%
%TA.AperFunction,ComponentPad*%
%ADD14O,1.524000X2.524000*%
%TD*%
%TA.AperFunction,ComponentPad*%
%ADD15C,2.000000*%
%TD*%
%TA.AperFunction,ComponentPad*%
%ADD16R,2.000000X4.600000*%
%TD*%
%TA.AperFunction,ComponentPad*%
%ADD17O,2.000000X4.200000*%
%TD*%
%TA.AperFunction,ComponentPad*%
%ADD18O,4.200000X2.000000*%
%TD*%
%TA.AperFunction,ComponentPad*%
%ADD19R,1.800000X1.800000*%
%TD*%
%TA.AperFunction,ComponentPad*%
%ADD20C,1.800000*%
%TD*%
%TA.AperFunction,Conductor*%
%ADD21C,0.250000*%
%TD*%
G04 APERTURE END LIST*
D10*
%TO.P,MillisecondsTimer1,1,GND*%
%TO.N,GND*%
X77480000Y-71130000D03*
D11*
%TO.P,MillisecondsTimer1,2,TR*%
%TO.N,Net-(MillisecondsC1-Pad1)*%
X77480000Y-73670000D03*
%TO.P,MillisecondsTimer1,3,Q*%
%TO.N,/MilliSecondsPulse1*%
X77480000Y-76210000D03*
%TO.P,MillisecondsTimer1,4,R*%
%TO.N,/TimerPower1*%
X77480000Y-78750000D03*
%TO.P,MillisecondsTimer1,5,CV*%
%TO.N,Net-(C1-Pad1)*%
X85100000Y-78750000D03*
%TO.P,MillisecondsTimer1,6,THR*%
%TO.N,Net-(MillisecondsC1-Pad1)*%
X85100000Y-76210000D03*
%TO.P,MillisecondsTimer1,7,DIS*%
%TO.N,Net-(MillisecondsTimer1-Pad7)*%
X85100000Y-73670000D03*
%TO.P,MillisecondsTimer1,8,VCC*%
%TO.N,/TimerPower1*%
X85100000Y-71130000D03*
%TD*%
D12*
%TO.P,R11,1*%
%TO.N,Net-(DoubleSecondsDisplay1-Pad6)*%
X130810000Y-67310000D03*
D11*
%TO.P,R11,2*%
%TO.N,GND*%
X130810000Y-57150000D03*
%TD*%
D13*
%TO.P,SingleSecondsDisplay1,1,CC*%
%TO.N,unconnected-(SingleSecondsDisplay1-Pad1)*%
X115600000Y-91440000D03*
D14*
%TO.P,SingleSecondsDisplay1,2,F*%
%TO.N,Net-(SingleSecondsCounter1-Pad6)*%
X118140000Y-91440000D03*
%TO.P,SingleSecondsDisplay1,3,G*%
%TO.N,Net-(SingleSecondsCounter1-Pad7)*%
X120680000Y-91440000D03*
%TO.P,SingleSecondsDisplay1,4,E*%
%TO.N,Net-(SingleSecondsCounter1-Pad11)*%
X123220000Y-91440000D03*
%TO.P,SingleSecondsDisplay1,5,D*%
%TO.N,Net-(SingleSecondsCounter1-Pad9)*%
X125760000Y-91440000D03*
%TO.P,SingleSecondsDisplay1,6,CC*%
%TO.N,Net-(R9-Pad1)*%
X125760000Y-76200000D03*
%TO.P,SingleSecondsDisplay1,7,DP*%
%TO.N,Net-(R8-Pad1)*%
X123220000Y-76200000D03*
%TO.P,SingleSecondsDisplay1,8,C*%
%TO.N,Net-(SingleSecondsCounter1-Pad13)*%
X120680000Y-76200000D03*
%TO.P,SingleSecondsDisplay1,9,B*%
%TO.N,Net-(SingleSecondsCounter1-Pad12)*%
X118140000Y-76200000D03*
%TO.P,SingleSecondsDisplay1,10,A*%
%TO.N,Net-(SingleSecondsCounter1-Pad10)*%
X115600000Y-76200000D03*
%TD*%
D10*
%TO.P,DefaultOff1,1*%
%TO.N,/+9V*%
X108714245Y-120650000D03*
D12*
%TO.P,DefaultOff1,2*%
%TO.N,Net-(DefaultOff1-Pad2)*%
X113714245Y-120650000D03*
%TD*%
%TO.P,R7,1*%
%TO.N,/ResetButtonIn1*%
X171350000Y-107560000D03*
D11*
%TO.P,R7,2*%
%TO.N,GND*%
X171350000Y-117720000D03*
%TD*%
D10*
%TO.P,MilliSecondsCounter1,1,CLOCK*%
%TO.N,/MilliSecondsPulse1*%
X152380000Y-105425000D03*
D11*
%TO.P,MilliSecondsCounter1,2,CLOCKINHIBIT*%
%TO.N,GND*%
X152380000Y-107965000D03*
%TO.P,MilliSecondsCounter1,3,DISPLAYENABLEIN*%
%TO.N,/+9V*%
X152380000Y-110505000D03*
%TO.P,MilliSecondsCounter1,4,DISPLAYENABLEOUT*%
%TO.N,GND*%
X152380000Y-113045000D03*
%TO.P,MilliSecondsCounter1,5,CARRYOUT*%
%TO.N,/SingleSecondsPulse1*%
X152380000Y-115585000D03*
%TO.P,MilliSecondsCounter1,6,F*%
%TO.N,Net-(MilliSecondsCounter1-Pad6)*%
X152380000Y-118125000D03*
%TO.P,MilliSecondsCounter1,7,G*%
%TO.N,Net-(MilliSecondsCounter1-Pad7)*%
X152380000Y-120665000D03*
%TO.P,MilliSecondsCounter1,8,VSS*%
%TO.N,GND*%
X152380000Y-123205000D03*
%TO.P,MilliSecondsCounter1,9,D*%
%TO.N,Net-(MilliSecondsCounter1-Pad9)*%
X162540000Y-123205000D03*
%TO.P,MilliSecondsCounter1,10,A*%
%TO.N,Net-(MilliSecondsCounter1-Pad10)*%
X162540000Y-120665000D03*
%TO.P,MilliSecondsCounter1,11,E*%
%TO.N,Net-(MilliSecondsCounter1-Pad11)*%
X162540000Y-118125000D03*
%TO.P,MilliSecondsCounter1,12,B*%
%TO.N,Net-(MilliSecondsCounter1-Pad12)*%
X162540000Y-115585000D03*
%TO.P,MilliSecondsCounter1,13,C*%
%TO.N,Net-(MilliSecondsCounter1-Pad13)*%
X162540000Y-113045000D03*
%TO.P,MilliSecondsCounter1,14,UNGATEDCSEGMENTOUT*%
%TO.N,GND*%
X162540000Y-110505000D03*
%TO.P,MilliSecondsCounter1,15,RESET*%
%TO.N,/ResetButtonIn1*%
X162540000Y-107965000D03*
%TO.P,MilliSecondsCounter1,16,VDD*%
%TO.N,/+9V*%
X162540000Y-105425000D03*
%TD*%
D10*
%TO.P,C1,1*%
%TO.N,Net-(C1-Pad1)*%
X92710000Y-69580000D03*
D12*
%TO.P,C1,2*%
%TO.N,GND*%
X95210000Y-69580000D03*
%TD*%
D13*
%TO.P,DoubleSecondsDisplay1,1,CC*%
%TO.N,unconnected-(DoubleSecondsDisplay1-Pad1)*%
X101600000Y-91440000D03*
D14*
%TO.P,DoubleSecondsDisplay1,2,F*%
%TO.N,Net-(DoubleSecondsCounter1-Pad6)*%
X104140000Y-91440000D03*
%TO.P,DoubleSecondsDisplay1,3,G*%
%TO.N,Net-(DoubleSecondsCounter1-Pad7)*%
X106680000Y-91440000D03*
%TO.P,DoubleSecondsDisplay1,4,E*%
%TO.N,Net-(DoubleSecondsCounter1-Pad11)*%
X109220000Y-91440000D03*
%TO.P,DoubleSecondsDisplay1,5,D*%
%TO.N,Net-(DoubleSecondsCounter1-Pad9)*%
X111760000Y-91440000D03*
%TO.P,DoubleSecondsDisplay1,6,CC*%
%TO.N,Net-(DoubleSecondsDisplay1-Pad6)*%
X111760000Y-76200000D03*
%TO.P,DoubleSecondsDisplay1,7,DP*%
%TO.N,GND*%
X109220000Y-76200000D03*
%TO.P,DoubleSecondsDisplay1,8,C*%
%TO.N,Net-(DoubleSecondsCounter1-Pad13)*%
X106680000Y-76200000D03*
%TO.P,DoubleSecondsDisplay1,9,B*%
%TO.N,Net-(DoubleSecondsCounter1-Pad12)*%
X104140000Y-76200000D03*
%TO.P,DoubleSecondsDisplay1,10,A*%
%TO.N,Net-(DoubleSecondsCounter1-Pad10)*%
X101600000Y-76200000D03*
%TD*%
D15*
%TO.P,On1,1,A*%
%TO.N,Net-(On1-Pad1)*%
X97634436Y-104430000D03*
X104134436Y-104430000D03*
%TO.P,On1,2,B*%
%TO.N,GND*%
X97634436Y-108930000D03*
X104134436Y-108930000D03*
%TD*%
D12*
%TO.P,R9,1*%
%TO.N,Net-(R9-Pad1)*%
X123190000Y-67310000D03*
D11*
%TO.P,R9,2*%
%TO.N,GND*%
X123190000Y-57150000D03*
%TD*%
D12*
%TO.P,R3,1*%
%TO.N,Net-(OnOffLed1-Pad1)*%
X92710000Y-87630000D03*
D11*
%TO.P,R3,2*%
%TO.N,GND*%
X92710000Y-77470000D03*
%TD*%
D16*
%TO.P,PWR1,1*%
%TO.N,/+9V*%
X87630000Y-104760000D03*
D17*
%TO.P,PWR1,2*%
%TO.N,GND*%
X81330000Y-104760000D03*
D18*
%TO.P,PWR1,3*%
%TO.N,N/C*%
X84730000Y-109560000D03*
%TD*%
D12*
%TO.P,R1,1*%
%TO.N,/+9V*%
X78740000Y-116840000D03*
D11*
%TO.P,R1,2*%
%TO.N,Net-(On1-Pad1)*%
X88900000Y-116840000D03*
%TD*%
%TO.P,R10,2*%
%TO.N,GND*%
X170980000Y-80690000D03*
D12*
%TO.P,R10,1*%
%TO.N,/ResetButtonIn1*%
X170980000Y-90850000D03*
%TD*%
D13*
%TO.P,MilliSecondsDisplay1,1,CC*%
%TO.N,unconnected-(MilliSecondsDisplay1-Pad1)*%
X129600000Y-91440000D03*
D14*
%TO.P,MilliSecondsDisplay1,2,F*%
%TO.N,Net-(MilliSecondsCounter1-Pad6)*%
X132140000Y-91440000D03*
%TO.P,MilliSecondsDisplay1,3,G*%
%TO.N,Net-(MilliSecondsCounter1-Pad7)*%
X134680000Y-91440000D03*
%TO.P,MilliSecondsDisplay1,4,E*%
%TO.N,Net-(MilliSecondsCounter1-Pad11)*%
X137220000Y-91440000D03*
%TO.P,MilliSecondsDisplay1,5,D*%
%TO.N,Net-(MilliSecondsCounter1-Pad9)*%
X139760000Y-91440000D03*
%TO.P,MilliSecondsDisplay1,6,CC*%
%TO.N,Net-(MilliSecondsDisplay1-Pad6)*%
X139760000Y-76200000D03*
%TO.P,MilliSecondsDisplay1,7,DP*%
%TO.N,GND*%
X137220000Y-76200000D03*
%TO.P,MilliSecondsDisplay1,8,C*%
%TO.N,Net-(MilliSecondsCounter1-Pad13)*%
X134680000Y-76200000D03*
%TO.P,MilliSecondsDisplay1,9,B*%
%TO.N,Net-(MilliSecondsCounter1-Pad12)*%
X132140000Y-76200000D03*
%TO.P,MilliSecondsDisplay1,10,A*%
%TO.N,Net-(MilliSecondsCounter1-Pad10)*%
X129600000Y-76200000D03*
%TD*%
D11*
%TO.P,R12,2*%
%TO.N,GND*%
X170180000Y-55880000D03*
D12*
%TO.P,R12,1*%
%TO.N,/ResetButtonIn1*%
X170180000Y-66040000D03*
%TD*%
D10*
%TO.P,DoubleSecondsCounter1,1,CLOCK*%
%TO.N,/DoubleSecondsPulse1*%
X152380000Y-52085000D03*
D11*
%TO.P,DoubleSecondsCounter1,2,CLOCKINHIBIT*%
%TO.N,GND*%
X152380000Y-54625000D03*
%TO.P,DoubleSecondsCounter1,3,DISPLAYENABLEIN*%
%TO.N,/+9V*%
X152380000Y-57165000D03*
%TO.P,DoubleSecondsCounter1,4,DISPLAYENABLEOUT*%
%TO.N,GND*%
X152380000Y-59705000D03*
%TO.P,DoubleSecondsCounter1,5,CARRYOUT*%
X152380000Y-62245000D03*
%TO.P,DoubleSecondsCounter1,6,F*%
%TO.N,Net-(DoubleSecondsCounter1-Pad6)*%
X152380000Y-64785000D03*
%TO.P,DoubleSecondsCounter1,7,G*%
%TO.N,Net-(DoubleSecondsCounter1-Pad7)*%
X152380000Y-67325000D03*
%TO.P,DoubleSecondsCounter1,8,VSS*%
%TO.N,GND*%
X152380000Y-69865000D03*
%TO.P,DoubleSecondsCounter1,9,D*%
%TO.N,Net-(DoubleSecondsCounter1-Pad9)*%
X162540000Y-69865000D03*
%TO.P,DoubleSecondsCounter1,10,A*%
%TO.N,Net-(DoubleSecondsCounter1-Pad10)*%
X162540000Y-67325000D03*
%TO.P,DoubleSecondsCounter1,11,E*%
%TO.N,Net-(DoubleSecondsCounter1-Pad11)*%
X162540000Y-64785000D03*
%TO.P,DoubleSecondsCounter1,12,B*%
%TO.N,Net-(DoubleSecondsCounter1-Pad12)*%
X162540000Y-62245000D03*
%TO.P,DoubleSecondsCounter1,13,C*%
%TO.N,Net-(DoubleSecondsCounter1-Pad13)*%
X162540000Y-59705000D03*
%TO.P,DoubleSecondsCounter1,14,UNGATEDCSEGMENTOUT*%
%TO.N,GND*%
X162540000Y-57165000D03*
%TO.P,DoubleSecondsCounter1,15,RESET*%
%TO.N,/ResetButtonIn1*%
X162540000Y-54625000D03*
%TO.P,DoubleSecondsCounter1,16,VDD*%
%TO.N,/+9V*%
X162540000Y-52085000D03*
%TD*%
D12*
%TO.P,R6,1*%
%TO.N,Net-(MilliSecondsDisplay1-Pad6)*%
X107950000Y-57150000D03*
D11*
%TO.P,R6,2*%
%TO.N,GND*%
X107950000Y-67310000D03*
%TD*%
D15*
%TO.P,Off1,1,A*%
%TO.N,Net-(DefaultOff1-Pad2)*%
X117430000Y-104430000D03*
X123930000Y-104430000D03*
%TO.P,Off1,2,B*%
%TO.N,GND*%
X117430000Y-108930000D03*
X123930000Y-108930000D03*
%TD*%
D10*
%TO.P,MillisecondsC1,1*%
%TO.N,Net-(MillisecondsC1-Pad1)*%
X91440000Y-58420000D03*
D12*
%TO.P,MillisecondsC1,2*%
%TO.N,GND*%
X96440000Y-58420000D03*
%TD*%
%TO.P,R5,1*%
%TO.N,Net-(MillisecondsTimer1-Pad7)*%
X73660000Y-62210000D03*
D11*
%TO.P,R5,2*%
%TO.N,Net-(MillisecondsC1-Pad1)*%
X83820000Y-62210000D03*
%TD*%
D10*
%TO.P,OnOff1,1,GND*%
%TO.N,GND*%
X77470000Y-86360000D03*
D11*
%TO.P,OnOff1,2,TR*%
%TO.N,Net-(On1-Pad1)*%
X77470000Y-88900000D03*
%TO.P,OnOff1,3,Q*%
%TO.N,/TimerPower1*%
X77470000Y-91440000D03*
%TO.P,OnOff1,4,R*%
%TO.N,Net-(DefaultOff1-Pad2)*%
X77470000Y-93980000D03*
%TO.P,OnOff1,5,CV*%
%TO.N,GND*%
X85090000Y-93980000D03*
%TO.P,OnOff1,6,THR*%
X85090000Y-91440000D03*
%TO.P,OnOff1,7,DIS*%
X85090000Y-88900000D03*
%TO.P,OnOff1,8,VCC*%
%TO.N,/+9V*%
X85090000Y-86360000D03*
%TD*%
%TO.P,R8,2*%
%TO.N,/+9V*%
X115570000Y-67310000D03*
D12*
%TO.P,R8,1*%
%TO.N,Net-(R8-Pad1)*%
X115570000Y-57150000D03*
%TD*%
%TO.P,R2,1*%
%TO.N,/+9V*%
X93980000Y-116840000D03*
D11*
%TO.P,R2,2*%
%TO.N,Net-(DefaultOff1-Pad2)*%
X104140000Y-116840000D03*
%TD*%
%TO.P,SingleSecondsCounter1,16,VDD*%
%TO.N,/+9V*%
X162540000Y-78755000D03*
%TO.P,SingleSecondsCounter1,15,RESET*%
%TO.N,/ResetButtonIn1*%
X162540000Y-81295000D03*
%TO.P,SingleSecondsCounter1,14,UNGATEDCSEGMENTOUT*%
%TO.N,GND*%
X162540000Y-83835000D03*
%TO.P,SingleSecondsCounter1,13,C*%
%TO.N,Net-(SingleSecondsCounter1-Pad13)*%
X162540000Y-86375000D03*
%TO.P,SingleSecondsCounter1,12,B*%
%TO.N,Net-(SingleSecondsCounter1-Pad12)*%
X162540000Y-88915000D03*
%TO.P,SingleSecondsCounter1,11,E*%
%TO.N,Net-(SingleSecondsCounter1-Pad11)*%
X162540000Y-91455000D03*
%TO.P,SingleSecondsCounter1,10,A*%
%TO.N,Net-(SingleSecondsCounter1-Pad10)*%
X162540000Y-93995000D03*
%TO.P,SingleSecondsCounter1,9,D*%
%TO.N,Net-(SingleSecondsCounter1-Pad9)*%
X162540000Y-96535000D03*
%TO.P,SingleSecondsCounter1,8,VSS*%
%TO.N,GND*%
X152380000Y-96535000D03*
%TO.P,SingleSecondsCounter1,7,G*%
%TO.N,Net-(SingleSecondsCounter1-Pad7)*%
X152380000Y-93995000D03*
%TO.P,SingleSecondsCounter1,6,F*%
%TO.N,Net-(SingleSecondsCounter1-Pad6)*%
X152380000Y-91455000D03*
%TO.P,SingleSecondsCounter1,5,CARRYOUT*%
%TO.N,/DoubleSecondsPulse1*%
X152380000Y-88915000D03*
%TO.P,SingleSecondsCounter1,4,DISPLAYENABLEOUT*%
%TO.N,GND*%
X152380000Y-86375000D03*
%TO.P,SingleSecondsCounter1,3,DISPLAYENABLEIN*%
%TO.N,/+9V*%
X152380000Y-83835000D03*
%TO.P,SingleSecondsCounter1,2,CLOCKINHIBIT*%
%TO.N,GND*%
X152380000Y-81295000D03*
D10*
%TO.P,SingleSecondsCounter1,1,CLOCK*%
%TO.N,/SingleSecondsPulse1*%
X152380000Y-78755000D03*
%TD*%
D15*
%TO.P,Reset1,1,A*%
%TO.N,/+9V*%
X137225564Y-104430000D03*
X143725564Y-104430000D03*
%TO.P,Reset1,2,B*%
%TO.N,/ResetButtonIn1*%
X143725564Y-108930000D03*
X137225564Y-108930000D03*
%TD*%
D19*
%TO.P,OnOffLed1,1,K*%
%TO.N,Net-(OnOffLed1-Pad1)*%
X91640000Y-95050322D03*
D20*
%TO.P,OnOffLed1,2,A*%
%TO.N,/TimerPower1*%
X94180000Y-95050322D03*
%TD*%
D12*
%TO.P,R4,1*%
%TO.N,/TimerPower1*%
X73660000Y-55880000D03*
D11*
%TO.P,R4,2*%
%TO.N,Net-(MillisecondsTimer1-Pad7)*%
X83820000Y-55880000D03*
%TD*%
D12*
%TO.P,DefaultReset1,2*%
%TO.N,/ResetButtonIn1*%
X134463339Y-120650000D03*
D10*
%TO.P,DefaultReset1,1*%
%TO.N,/+9V*%
X129463339Y-120650000D03*
%TD*%
D21*
%TO.N,Net-(DefaultOff1-Pad2)*%
X104140000Y-121920000D02*
X113030000Y-121920000D01*
X113030000Y-121920000D02*
X113714245Y-121235755D01*
X113714245Y-121235755D02*
X113714245Y-120650000D01*
%TO.N,Net-(R8-Pad1)*%
X135890000Y-74930000D02*
X128270000Y-67310000D01*
X110490000Y-60960000D02*
X105410000Y-60960000D01*
X140210250Y-77787000D02*
X136769750Y-77787000D01*
X105410000Y-60960000D02*
X105410000Y-55880000D01*
X121920000Y-66040000D02*
X121920000Y-68580000D01*
X136769750Y-77787000D02*
X135890000Y-76907250D01*
X105860000Y-55430000D02*
X140970000Y-55430000D01*
X140970000Y-55430000D02*
X140970000Y-77027250D01*
X105410000Y-55880000D02*
X105860000Y-55430000D01*
X128270000Y-67310000D02*
X125730000Y-67310000D01*
X124460000Y-66040000D02*
X121920000Y-66040000D01*
X114300000Y-57150000D02*
X110490000Y-60960000D01*
X135890000Y-76907250D02*
X135890000Y-74930000D01*
X140970000Y-77027250D02*
X140210250Y-77787000D01*
X115570000Y-57150000D02*
X114300000Y-57150000D01*
X123220000Y-69880000D02*
X123220000Y-76200000D01*
X125730000Y-67310000D02*
X124460000Y-66040000D01*
X121920000Y-68580000D02*
X123220000Y-69880000D01*
%TO.N,/ResetButtonIn1*%
X143725564Y-108930000D02*
X137225564Y-108930000D01*
%TO.N,GND*%
X132080000Y-120650000D02*
X132080000Y-113030000D01*
X152380000Y-123205000D02*
X134635000Y-123205000D01*
X134635000Y-123205000D02*
X132080000Y-120650000D01*
X132080000Y-113030000D02*
X127980000Y-108930000D01*
X127980000Y-108930000D02*
X123930000Y-108930000D01*
X152380000Y-59705000D02*
X152380000Y-62245000D01*
X162540000Y-83835000D02*
X159401396Y-83835000D01*
X159401396Y-83835000D02*
X156861396Y-81295000D01*
X156861396Y-81295000D02*
X152380000Y-81295000D01*
%TO.N,/+9V*%
X162540000Y-105425000D02*
X162540000Y-101620000D01*
X162540000Y-101620000D02*
X167640000Y-96520000D01*
X162845991Y-82550000D02*
X161290000Y-82550000D01*
X167640000Y-96520000D02*
X167640000Y-91440000D01*
X167640000Y-91440000D02*
X166370000Y-90170000D01*
X166370000Y-90170000D02*
X166370000Y-86360000D01*
X166370000Y-86360000D02*
X163830000Y-83820000D01*
X163830000Y-83820000D02*
X163830000Y-83534009D01*
X163830000Y-83534009D02*
X162845991Y-82550000D01*
X161290000Y-82550000D02*
X161290000Y-78740000D01*
X161290000Y-78740000D02*
X161305000Y-78755000D01*
X161305000Y-78755000D02*
X162540000Y-78755000D01*
%TO.N,/ResetButtonIn1*%
X170180000Y-66040000D02*
X170180000Y-73655000D01*
X170180000Y-73655000D02*
X162540000Y-81295000D01*
X170980000Y-90850000D02*
X170980000Y-89718630D01*
X170980000Y-89718630D02*
X162556370Y-81295000D01*
X162556370Y-81295000D02*
X162540000Y-81295000D01*
X171350000Y-107560000D02*
X171350000Y-91220000D01*
X171350000Y-91220000D02*
X170980000Y-90850000D01*
%TO.N,GND*%
X104134436Y-108930000D02*
X97634436Y-108930000D01*
X117430000Y-108930000D02*
X104134436Y-108930000D01*
X117430000Y-108930000D02*
X123930000Y-108930000D01*
%TO.N,Net-(DefaultOff1-Pad2)*%
X123930000Y-104430000D02*
X117430000Y-104430000D01*
%TO.N,/ResetButtonIn1*%
X162540000Y-107965000D02*
X161305000Y-107965000D01*
X161305000Y-107965000D02*
X157480000Y-104140000D01*
X157480000Y-104140000D02*
X149860000Y-104140000D01*
X151130000Y-109220000D02*
X153670000Y-109220000D01*
X149860000Y-104140000D02*
X149860000Y-107950000D01*
X149860000Y-107950000D02*
X151130000Y-109220000D01*
X153670000Y-109220000D02*
X153670000Y-111760000D01*
X146555564Y-111760000D02*
X143725564Y-108930000D01*
X153670000Y-111760000D02*
X146555564Y-111760000D01*
X171350000Y-107560000D02*
X162945000Y-107560000D01*
X162945000Y-107560000D02*
X162540000Y-107965000D01*
%TO.N,GND*%
X171350000Y-117720000D02*
X169755000Y-117720000D01*
X169755000Y-117720000D02*
X162540000Y-110505000D01*
%TO.N,/SingleSecondsPulse1*%
X152380000Y-115585000D02*
X138445000Y-115585000D01*
X138445000Y-115585000D02*
X124460000Y-101600000D01*
X124460000Y-101600000D02*
X123823604Y-101600000D01*
X123823604Y-101600000D02*
X120331802Y-98108198D01*
X120331802Y-98108198D02*
X119594198Y-98108198D01*
X119594198Y-98108198D02*
X114300000Y-92814000D01*
X114300000Y-92814000D02*
X114300000Y-73660000D01*
X114300000Y-73660000D02*
X115570000Y-72390000D01*
X115570000Y-72390000D02*
X121920000Y-72390000D01*
X121920000Y-72390000D02*
X121920000Y-78740000D01*
X121920000Y-78740000D02*
X121935000Y-78755000D01*
X121935000Y-78755000D02*
X152380000Y-78755000D01*
%TO.N,/+9V*%
X152380000Y-110505000D02*
X149800564Y-110505000D01*
X149800564Y-110505000D02*
X143725564Y-104430000D01*
%TO.N,GND*%
X154940000Y-113030000D02*
X154940000Y-107950000D01*
X154940000Y-107950000D02*
X154925000Y-107965000D01*
X154925000Y-107965000D02*
X152380000Y-107965000D01*
X154940000Y-123190000D02*
X154940000Y-113030000D01*
X152380000Y-123205000D02*
X154925000Y-123205000D01*
X154925000Y-113045000D02*
X152380000Y-113045000D01*
X154925000Y-123205000D02*
X154940000Y-123190000D01*
X154940000Y-113030000D02*
X154925000Y-113045000D01*
%TO.N,Net-(SingleSecondsCounter1-Pad7)*%
X120680000Y-91440000D02*
X120680000Y-92740000D01*
X120680000Y-92740000D02*
X126550000Y-98610000D01*
X126550000Y-98610000D02*
X148590000Y-98610000D01*
X148590000Y-98610000D02*
X148590000Y-97785000D01*
X148590000Y-97785000D02*
X152380000Y-93995000D01*
%TO.N,Net-(SingleSecondsCounter1-Pad9)*%
X125760000Y-91440000D02*
X125760000Y-93950000D01*
X122370000Y-99510000D02*
X157666396Y-99510000D01*
X157666396Y-99510000D02*
X160641396Y-96535000D01*
X125760000Y-93950000D02*
X125730000Y-93980000D01*
X125730000Y-93980000D02*
X123190000Y-93980000D01*
X116840000Y-88900000D02*
X116840000Y-93980000D01*
X123190000Y-93980000D02*
X121920000Y-92710000D01*
X121920000Y-92710000D02*
X121920000Y-88900000D01*
X121920000Y-88900000D02*
X116840000Y-88900000D01*
X116840000Y-93980000D02*
X122370000Y-99510000D01*
X160641396Y-96535000D02*
X162540000Y-96535000D01*
%TO.N,Net-(SingleSecondsCounter1-Pad6)*%
X118140000Y-91440000D02*
X125760000Y-99060000D01*
X125760000Y-99060000D02*
X157480000Y-99060000D01*
X157480000Y-99060000D02*
X157480000Y-93980000D01*
X157480000Y-93980000D02*
X154955000Y-91455000D01*
X154955000Y-91455000D02*
X152380000Y-91455000D01*
%TO.N,Net-(SingleSecondsCounter1-Pad11)*%
X123220000Y-91440000D02*
X123220000Y-85140000D01*
X123220000Y-85140000D02*
X124460000Y-83900000D01*
X148590000Y-88900000D02*
X149860000Y-90170000D01*
X124460000Y-83900000D02*
X148033604Y-83900000D01*
X148033604Y-83900000D02*
X148590000Y-84456396D01*
X148590000Y-84456396D02*
X148590000Y-88900000D01*
X149860000Y-90170000D02*
X156210000Y-90170000D01*
X156210000Y-90170000D02*
X158750000Y-92710000D01*
X158750000Y-92710000D02*
X158750000Y-95250000D01*
X158750000Y-95250000D02*
X165100000Y-95250000D01*
X165100000Y-95250000D02*
X165100000Y-91440000D01*
X165100000Y-91440000D02*
X165085000Y-91455000D01*
X165085000Y-91455000D02*
X162540000Y-91455000D01*
%TO.N,Net-(SingleSecondsCounter1-Pad10)*%
X160020000Y-91440000D02*
X160020000Y-93980000D01*
X148220000Y-83450000D02*
X149860000Y-85090000D01*
X149860000Y-87630000D02*
X156210000Y-87630000D01*
X123640000Y-83450000D02*
X148220000Y-83450000D01*
X118110000Y-80010000D02*
X118560000Y-80460000D01*
X120650000Y-80460000D02*
X123640000Y-83450000D01*
X149860000Y-85090000D02*
X149860000Y-87630000D01*
X156210000Y-87630000D02*
X160020000Y-91440000D01*
X115600000Y-76200000D02*
X115600000Y-78710000D01*
X116840000Y-80010000D02*
X118110000Y-80010000D01*
X118560000Y-80460000D02*
X120650000Y-80460000D01*
X160020000Y-93980000D02*
X160035000Y-93995000D01*
X115570000Y-78740000D02*
X116840000Y-80010000D01*
X115600000Y-78710000D02*
X115570000Y-78740000D01*
X160035000Y-93995000D02*
X162540000Y-93995000D01*
%TO.N,Net-(SingleSecondsCounter1-Pad12)*%
X118140000Y-76200000D02*
X118140000Y-78710000D01*
X118140000Y-78710000D02*
X118110000Y-78740000D01*
X149040000Y-83000000D02*
X151130000Y-85090000D01*
X118110000Y-78740000D02*
X119380000Y-80010000D01*
X160035000Y-88915000D02*
X162540000Y-88915000D01*
X119380000Y-80010000D02*
X121283604Y-80010000D01*
X121283604Y-80010000D02*
X124273604Y-83000000D01*
X151130000Y-85090000D02*
X156210000Y-85090000D01*
X124273604Y-83000000D02*
X149040000Y-83000000D01*
X156210000Y-85090000D02*
X160035000Y-88915000D01*
%TO.N,Net-(SingleSecondsCounter1-Pad13)*%
X120680000Y-76200000D02*
X120680000Y-78770000D01*
X120680000Y-78770000D02*
X124460000Y-82550000D01*
X124460000Y-82550000D02*
X157480000Y-82550000D01*
X157480000Y-82550000D02*
X161305000Y-86375000D01*
X161305000Y-86375000D02*
X162540000Y-86375000D01*
%TO.N,GND*%
X154940000Y-69850000D02*
X154940000Y-62230000D01*
X152380000Y-69865000D02*
X154925000Y-69865000D01*
X154925000Y-69865000D02*
X154940000Y-69850000D01*
X154940000Y-62230000D02*
X154925000Y-62245000D01*
X154925000Y-62245000D02*
X152380000Y-62245000D01*
%TO.N,/ResetButtonIn1*%
X171450000Y-64770000D02*
X171450000Y-54610000D01*
X170180000Y-66040000D02*
X171450000Y-64770000D01*
X171450000Y-54610000D02*
X171435000Y-54625000D01*
X171435000Y-54625000D02*
X162540000Y-54625000D01*
%TO.N,GND*%
X162540000Y-57165000D02*
X168895000Y-57165000D01*
X168895000Y-57165000D02*
X170180000Y-55880000D01*
X162540000Y-57165000D02*
X154920000Y-57165000D01*
X154920000Y-57165000D02*
X152380000Y-54625000D01*
%TO.N,Net-(On1-Pad1)*%
X104134436Y-104430000D02*
X97634436Y-104430000D01*
%TO.N,Net-(DoubleSecondsDisplay1-Pad6)*%
X130810000Y-67310000D02*
X128270000Y-64770000D01*
X118560000Y-67310000D02*
X118560000Y-68766396D01*
X128270000Y-64770000D02*
X121100000Y-64770000D01*
X121100000Y-64770000D02*
X118560000Y-67310000D01*
X118560000Y-68766396D02*
X117846396Y-69480000D01*
X117846396Y-69480000D02*
X111760000Y-69480000D01*
X111760000Y-69480000D02*
X111760000Y-76200000D01*
%TO.N,Net-(MilliSecondsDisplay1-Pad6)*%
X107950000Y-57150000D02*
X113030000Y-57150000D01*
X113030000Y-57150000D02*
X114300000Y-55880000D01*
X114300000Y-55880000D02*
X132530000Y-55880000D01*
X132530000Y-55880000D02*
X133350000Y-56700000D01*
X133350000Y-56700000D02*
X136076396Y-56700000D01*
X136076396Y-56700000D02*
X137670000Y-58293604D01*
X139760000Y-73210000D02*
X139760000Y-76200000D01*
X137670000Y-58293604D02*
X137670000Y-71120000D01*
X137670000Y-71120000D02*
X139760000Y-73210000D01*
%TO.N,GND*%
X130810000Y-57150000D02*
X135890000Y-57150000D01*
X135890000Y-57150000D02*
X137220000Y-58480000D01*
X137220000Y-58480000D02*
X137220000Y-76200000D01*
X123190000Y-57150000D02*
X123190000Y-60960000D01*
X123190000Y-60960000D02*
X118110000Y-66040000D01*
X130810000Y-57150000D02*
X123190000Y-57150000D01*
%TO.N,Net-(R9-Pad1)*%
X123190000Y-67310000D02*
X125760000Y-69880000D01*
X125760000Y-69880000D02*
X125760000Y-76200000D01*
%TO.N,GND*%
X107950000Y-67310000D02*
X113030000Y-67310000D01*
X114486396Y-69030000D02*
X109220000Y-69030000D01*
X113030000Y-67310000D02*
X114300000Y-66040000D01*
X114300000Y-66040000D02*
X118110000Y-66040000D01*
X118110000Y-68580000D02*
X114936396Y-68580000D01*
X114936396Y-68580000D02*
X114486396Y-69030000D01*
X118110000Y-66040000D02*
X118110000Y-68580000D01*
X109220000Y-69030000D02*
X109220000Y-76200000D01*
%TO.N,/+9V*%
X87630000Y-86360000D02*
X105410000Y-68580000D01*
X105410000Y-68580000D02*
X114300000Y-68580000D01*
X114300000Y-68580000D02*
X115570000Y-67310000D01*
%TO.N,GND*%
X96440000Y-58420000D02*
X96440000Y-67230000D01*
X96440000Y-67230000D02*
X96440000Y-68350000D01*
X107950000Y-67310000D02*
X96520000Y-67310000D01*
X96520000Y-67310000D02*
X96440000Y-67230000D01*
%TO.N,Net-(C1-Pad1)*%
X92710000Y-69580000D02*
X92710000Y-71140000D01*
X92710000Y-71140000D02*
X85100000Y-78750000D01*
%TO.N,GND*%
X95210000Y-69580000D02*
X95210000Y-74970000D01*
X95210000Y-74970000D02*
X92710000Y-77470000D01*
X96440000Y-68350000D02*
X95210000Y-69580000D01*
%TO.N,Net-(MillisecondsTimer1-Pad7)*%
X83820000Y-59690000D02*
X73660000Y-59690000D01*
X83820000Y-55880000D02*
X83820000Y-59690000D01*
X73660000Y-59690000D02*
X73660000Y-62210000D01*
%TO.N,/MilliSecondsPulse1*%
X77480000Y-76210000D02*
X75553604Y-76210000D01*
X75553604Y-76210000D02*
X73210000Y-78553604D01*
X157480000Y-106680000D02*
X156225000Y-105425000D01*
X73210000Y-78553604D02*
X73210000Y-122106396D01*
X109590000Y-125730000D02*
X157480000Y-125730000D01*
X73210000Y-122106396D02*
X73473604Y-122370000D01*
X73473604Y-122370000D02*
X106230000Y-122370000D01*
X106230000Y-122370000D02*
X109590000Y-125730000D01*
X157480000Y-125730000D02*
X157480000Y-106680000D01*
X156225000Y-105425000D02*
X152380000Y-105425000D01*
%TO.N,Net-(MillisecondsC1-Pad1)*%
X83820000Y-62210000D02*
X87650000Y-62210000D01*
X87650000Y-62210000D02*
X91440000Y-58420000D01*
X73660000Y-66040000D02*
X83820000Y-66040000D01*
X73670000Y-73670000D02*
X73660000Y-73660000D01*
X77480000Y-73670000D02*
X73670000Y-73670000D01*
X73660000Y-73660000D02*
X73660000Y-66040000D01*
X83820000Y-66040000D02*
X83820000Y-62210000D01*
%TO.N,Net-(OnOffLed1-Pad1)*%
X91640000Y-95050322D02*
X91640000Y-88700000D01*
X91640000Y-88700000D02*
X92710000Y-87630000D01*
%TO.N,GND*%
X84790000Y-107650000D02*
X85090000Y-107950000D01*
X84790000Y-101300000D02*
X84790000Y-107650000D01*
X85090000Y-101000000D02*
X84790000Y-101300000D01*
X84790000Y-101300000D02*
X81330000Y-104760000D01*
X85090000Y-107950000D02*
X96654436Y-107950000D01*
X96654436Y-107950000D02*
X97634436Y-108930000D01*
X88900000Y-77470000D02*
X88900000Y-82550000D01*
X92710000Y-77470000D02*
X88900000Y-77470000D01*
X80010000Y-86360000D02*
X80010000Y-82550000D01*
X80010000Y-82550000D02*
X80010000Y-71120000D01*
X88900000Y-82550000D02*
X80010000Y-82550000D01*
X85090000Y-93980000D02*
X85090000Y-101000000D01*
%TO.N,Net-(DefaultOff1-Pad2)*%
X73660000Y-121920000D02*
X104140000Y-121920000D01*
X77470000Y-93980000D02*
X73660000Y-93980000D01*
X73660000Y-93980000D02*
X73660000Y-121920000D01*
X104140000Y-121920000D02*
X104140000Y-116840000D01*
%TO.N,Net-(On1-Pad1)*%
X77470000Y-88900000D02*
X80010000Y-88900000D01*
X80010000Y-88900000D02*
X80005000Y-88905000D01*
X80010000Y-113030000D02*
X88900000Y-113030000D01*
X88900000Y-113030000D02*
X88900000Y-116840000D01*
X80005000Y-88905000D02*
X80005000Y-113025000D01*
X80005000Y-113025000D02*
X80010000Y-113030000D01*
%TO.N,/TimerPower1*%
X73660000Y-78740000D02*
X78740000Y-78740000D01*
X77470000Y-91440000D02*
X73660000Y-91440000D01*
X73660000Y-91440000D02*
X73660000Y-78740000D01*
X78740000Y-78740000D02*
X78730000Y-78750000D01*
X78730000Y-78750000D02*
X77480000Y-78750000D01*
%TO.N,GND*%
X85090000Y-88900000D02*
X82550000Y-88900000D01*
X82550000Y-88900000D02*
X80010000Y-86360000D01*
%TO.N,/+9V*%
X87630000Y-104760000D02*
X87630000Y-86360000D01*
X87630000Y-86360000D02*
X85090000Y-86360000D01*
%TO.N,GND*%
X85090000Y-91440000D02*
X85090000Y-88900000D01*
X85090000Y-93980000D02*
X85090000Y-91440000D01*
X77470000Y-86360000D02*
X80010000Y-86360000D01*
X80010000Y-71120000D02*
X80000000Y-71130000D01*
X80000000Y-71130000D02*
X77480000Y-71130000D01*
%TD*%
M02*
