M48
; DRILL file {KiCad 6.0.11+dfsg-1} date Thu 10 Oct 2024 07:54:35 AM UTC
; FORMAT={-:-/ absolute / inch / decimal}
; #@! TF.CreationDate,2024-10-10T07:54:35+00:00
; #@! TF.GenerationSoftware,Kicad,Pcbnew,6.0.11+dfsg-1
; #@! TF.FileFunction,Plated,1,2,PTH
FMAT,2
INCH
; #@! TA.AperFunction,Plated,PTH,ComponentDrill
T1C0.0315
; #@! TA.AperFunction,Plated,PTH,ComponentDrill
T2C0.0354
; #@! TA.AperFunction,Plated,PTH,ComponentDrill
T3C0.0394
; #@! TA.AperFunction,Plated,PTH,ComponentDrill
T4C0.0433
%
G90
G05
T1
X2.9Y-2.2
X2.9Y-2.4492
X3.05Y-3.4
X3.05Y-3.5
X3.05Y-3.6
X3.05Y-3.7
X3.0504Y-2.8004
X3.0504Y-2.9004
X3.0504Y-3.0004
X3.0504Y-3.1004
X3.1Y-4.6
X3.3Y-2.2
X3.3Y-2.4492
X3.35Y-3.4
X3.35Y-3.5
X3.35Y-3.6
X3.35Y-3.7
X3.3504Y-2.8004
X3.3504Y-2.9004
X3.3504Y-3.0004
X3.3504Y-3.1004
X3.5Y-4.6
X3.6Y-2.3
X3.65Y-2.7394
X3.65Y-3.05
X3.65Y-3.45
X3.7Y-4.6
X3.7484Y-2.7394
X3.7969Y-2.3
X4.0Y-3.0
X4.0Y-3.6
X4.1Y-3.0
X4.1Y-3.6
X4.1Y-4.6
X4.2Y-3.0
X4.2Y-3.6
X4.25Y-2.25
X4.25Y-2.65
X4.2801Y-4.75
X4.3Y-3.0
X4.3Y-3.6
X4.4Y-3.0
X4.4Y-3.6
X4.4769Y-4.75
X4.55Y-2.25
X4.55Y-2.65
X4.5512Y-3.0
X4.5512Y-3.6
X4.6512Y-3.0
X4.6512Y-3.6
X4.7512Y-3.0
X4.7512Y-3.6
X4.85Y-2.25
X4.85Y-2.65
X4.8512Y-3.0
X4.8512Y-3.6
X4.9512Y-3.0
X4.9512Y-3.6
X5.097Y-4.75
X5.1024Y-3.0
X5.1024Y-3.6
X5.15Y-2.25
X5.15Y-2.65
X5.2024Y-3.0
X5.2024Y-3.6
X5.2938Y-4.75
X5.3024Y-3.0
X5.3024Y-3.6
X5.4024Y-3.0
X5.4024Y-3.6
X5.5024Y-3.0
X5.5024Y-3.6
X5.9992Y-2.0506
X5.9992Y-2.1506
X5.9992Y-2.2506
X5.9992Y-2.3506
X5.9992Y-2.4506
X5.9992Y-2.5506
X5.9992Y-2.6506
X5.9992Y-2.7506
X5.9992Y-3.1006
X5.9992Y-3.2006
X5.9992Y-3.3006
X5.9992Y-3.4006
X5.9992Y-3.5006
X5.9992Y-3.6006
X5.9992Y-3.7006
X5.9992Y-3.8006
X5.9992Y-4.1506
X5.9992Y-4.2506
X5.9992Y-4.3506
X5.9992Y-4.4506
X5.9992Y-4.5506
X5.9992Y-4.6506
X5.9992Y-4.7506
X5.9992Y-4.8506
X6.3992Y-2.0506
X6.3992Y-2.1506
X6.3992Y-2.2506
X6.3992Y-2.3506
X6.3992Y-2.4506
X6.3992Y-2.5506
X6.3992Y-2.6506
X6.3992Y-2.7506
X6.3992Y-3.1006
X6.3992Y-3.2006
X6.3992Y-3.3006
X6.3992Y-3.4006
X6.3992Y-3.5006
X6.3992Y-3.6006
X6.3992Y-3.7006
X6.3992Y-3.8006
X6.3992Y-4.1506
X6.3992Y-4.2506
X6.3992Y-4.3506
X6.3992Y-4.4506
X6.3992Y-4.5506
X6.3992Y-4.6506
X6.3992Y-4.7506
X6.3992Y-4.8506
X6.7Y-2.2
X6.7Y-2.6
X6.7315Y-3.1768
X6.7315Y-3.5768
X6.7461Y-4.2346
X6.7461Y-4.6346
T2
X3.6079Y-3.7421
X3.7079Y-3.7421
T4
X3.8439Y-4.1114
X3.8439Y-4.2886
X4.0998Y-4.1114
X4.0998Y-4.2886
X4.6232Y-4.1114
X4.6232Y-4.2886
X4.8791Y-4.1114
X4.8791Y-4.2886
X5.4026Y-4.1114
X5.4026Y-4.2886
X5.6585Y-4.1114
X5.6585Y-4.2886
T3
G00X3.202Y-4.0811
M15
G01X3.202Y-4.1677
M16
G05
G00X3.3791Y-4.3134
M15
G01X3.2925Y-4.3134
M16
G05
G00X3.45Y-4.0732
M15
G01X3.45Y-4.1756
M16
G05
T0
M30
